<svg width="520" height="850" viewBox="0 0 520 850" fill="none" xmlns="http://www.w3.org/2000/svg">
<g clip-path="url(#clip0_122_21)">
<path d="M494.489 330H468.576C468.574 330 468.572 330 468.57 330H25.5115C21.0149 330 17.3695 333.645 17.3695 338.142C17.3695 342.638 21.0149 346.284 25.5115 346.284H44.3433L69.4954 555.613C69.515 556.07 69.5649 556.519 69.6561 556.953L100.374 812.607C103.126 833.924 121.409 850 142.903 850H377.097C398.591 850 416.874 833.924 419.633 812.536L450.343 556.954C450.435 556.52 450.484 556.071 450.503 555.613L475.657 346.284H494.489C498.985 346.284 502.63 342.638 502.63 338.142C502.63 333.645 498.985 330 494.489 330ZM320.99 407.077L319.497 442.902H268.142V407.077H320.99ZM447.646 442.902H403.462L406.448 407.077H451.951L447.646 442.902ZM428.863 599.228H390.435L393.421 563.403H433.168L428.863 599.228ZM422.602 651.336H386.093L389.078 615.511H426.906L422.602 651.336ZM322.768 755.553L324.261 719.729H364.053L361.068 755.553H322.768ZM268.142 755.553V719.729H307.963L306.47 755.553H268.142ZM213.53 755.553L212.037 719.729H251.858V755.553H213.53ZM80.5718 511.294H122.237L125.222 547.119H84.8761L80.5718 511.294ZM138.577 511.294H187.055L188.547 547.119H141.563L138.577 511.294ZM251.858 615.511V651.336H209.188L207.695 615.511H251.858ZM207.016 599.228L205.524 563.403H251.858V599.228H207.016ZM268.142 615.511H312.305L310.812 651.336H268.142V615.511ZM268.142 599.228V563.403H314.476L312.984 599.228H268.142ZM268.142 547.119V511.294H316.647L315.155 547.119H268.142ZM251.858 547.119H204.845L203.353 511.294H251.858V547.119ZM189.226 563.403L190.718 599.228H145.905L142.92 563.403H189.226ZM191.397 615.511L192.89 651.336H150.247L147.262 615.511H191.397ZM193.568 667.62L195.061 703.445H154.59L151.604 667.62H193.568ZM209.866 667.62H251.858V703.445H211.359L209.866 667.62ZM268.142 667.62H310.134L308.641 703.445H268.142V667.62ZM326.432 667.62H368.396L365.41 703.445H324.939L326.432 667.62ZM327.11 651.336L328.603 615.511H372.738L369.753 651.336H327.11ZM329.282 599.228L330.774 563.403H377.08L374.095 599.228H329.282ZM331.453 547.119L332.945 511.294H381.423L378.437 547.119H331.453ZM333.624 495.01L335.117 459.186H385.765L382.78 495.01H333.624ZM317.326 495.01H268.142V459.186H318.819L317.326 495.01ZM251.858 495.01H202.674L201.181 459.186H251.858V495.01ZM186.376 495.01H137.22L134.235 459.186H184.883L186.376 495.01ZM120.88 495.01H78.6144L74.31 459.186H117.895L120.88 495.01ZM126.579 563.403L129.565 599.228H91.1368L86.8324 563.403H126.579ZM130.922 615.511L133.907 651.336H97.3985L93.0941 615.511H130.922ZM135.264 667.62L138.249 703.445H103.674C103.669 703.445 103.665 703.446 103.659 703.446L99.3547 667.62H135.264ZM105.616 719.729H139.606L142.592 755.553H109.921L105.616 719.729ZM158.932 755.553L155.947 719.729H195.739L197.232 755.553H158.932ZM380.394 719.729H414.384L410.079 755.553H377.408L380.394 719.729ZM416.341 703.446C416.335 703.446 416.331 703.445 416.326 703.445H381.751L384.736 667.62H420.645L416.341 703.446ZM394.778 547.119L397.763 511.294H439.428L435.124 547.119H394.778ZM441.386 495.01H399.12L402.105 459.186H445.69L441.386 495.01ZM387.122 442.902H335.795L337.288 407.077H390.107L387.122 442.902ZM251.858 442.902H200.503L199.01 407.077H251.858V442.902ZM182.712 407.077L184.205 442.902H132.878L129.893 407.077H182.712ZM113.552 407.077L116.538 442.902H72.3538L68.0494 407.077H113.552ZM403.474 810.522C401.769 823.745 390.429 833.716 377.097 833.716H142.903C129.571 833.716 118.231 823.745 116.533 810.594L111.877 771.837H151.42C151.423 771.837 151.427 771.837 151.431 771.837C151.435 771.837 151.439 771.837 151.444 771.837H368.555C368.56 771.837 368.564 771.837 368.568 771.837C368.571 771.837 368.576 771.837 368.579 771.837H408.122L403.474 810.522ZM453.908 390.793H66.0921L60.7445 346.284H459.256L453.908 390.793Z" fill="#4CC9F0"/>
<path d="M385.526 781.662C381.054 781.147 377.021 784.35 376.504 788.817L373.498 814.871C372.982 819.338 376.186 823.377 380.653 823.894C380.97 823.93 381.285 823.948 381.596 823.948C385.675 823.948 389.196 820.889 389.674 816.738L392.68 790.684C393.196 786.216 389.993 782.177 385.526 781.662Z" fill="#4CC9F0"/>
<path d="M431.76 380.965C432.077 381.002 432.391 381.02 432.703 381.02C436.782 381.02 440.302 377.961 440.781 373.81L441.783 365.13C442.299 360.663 439.095 356.624 434.628 356.107C430.164 355.593 426.122 358.795 425.605 363.263L424.603 371.943C424.09 376.41 427.293 380.45 431.76 380.965Z" fill="#4CC9F0"/>
</g>
<path d="M375.158 400.942C373.173 400.915 371.225 401.477 369.559 402.557C367.894 403.638 366.586 405.188 365.802 407.011C365.017 408.835 364.791 410.85 365.151 412.802C365.512 414.754 366.443 416.555 367.828 417.978C369.212 419.401 370.987 420.381 372.929 420.795C374.87 421.209 376.891 421.038 378.735 420.304C380.579 419.569 382.165 418.305 383.29 416.669C384.416 415.034 385.031 413.102 385.058 411.117V410.842C385.034 408.224 383.984 405.719 382.132 403.868C380.281 402.016 377.777 400.966 375.158 400.942Z" stroke="#F72585" stroke-width="16.6667" stroke-linecap="round" stroke-linejoin="round"/>
<path d="M398.854 378.209H247.146C244.755 378.268 242.482 379.26 240.812 380.973C239.142 382.686 238.208 384.983 238.208 387.375V539.084C238.208 541.515 239.174 543.846 240.893 545.565C242.612 547.284 244.944 548.25 247.375 548.25H399.083C401.515 548.25 403.846 547.284 405.565 545.565C407.284 543.846 408.25 541.515 408.25 539.084V387.146C408.22 385.942 407.954 384.756 407.465 383.655C406.977 382.554 406.277 381.56 405.404 380.73C404.531 379.9 403.504 379.251 402.38 378.818C401.256 378.385 400.058 378.178 398.854 378.209Z" stroke="#F72585" stroke-width="16.6667" stroke-linecap="round" stroke-linejoin="round"/>
<path d="M323 425.05C315.494 425.05 308.157 427.276 301.916 431.446C295.675 435.616 290.811 441.543 287.939 448.477C285.066 455.411 284.315 463.042 285.779 470.403C287.243 477.765 290.858 484.527 296.165 489.835C301.473 495.142 308.235 498.756 315.596 500.221C322.958 501.685 330.588 500.933 337.523 498.061C344.457 495.189 350.384 490.325 354.554 484.084C358.724 477.843 360.95 470.506 360.95 463C360.95 452.935 356.952 443.282 349.835 436.165C342.718 429.048 333.065 425.05 323 425.05Z" stroke="#F72585" stroke-width="16.6667" stroke-linecap="round" stroke-linejoin="round"/>
<path d="M210.558 222.854V227.438C210.558 273.592 175.542 326.483 111.467 326.483C92.551 326.524 74.037 321.027 58.2083 310.671C60.9573 311.044 63.7302 311.213 66.5041 311.175C82.1838 311.218 97.4225 305.988 109.771 296.325C102.486 296.218 95.4212 293.817 89.5792 289.464C83.7373 285.112 79.4158 279.029 77.2291 272.079C79.3989 272.539 81.6111 272.77 83.8291 272.767C86.9264 272.767 90.0096 272.351 92.9958 271.529C85.106 269.956 78.0079 265.691 72.9162 259.462C67.8245 253.233 65.0556 245.428 65.0833 237.383V236.925C69.9105 239.622 75.3223 241.1 80.85 241.233C73.4919 236.391 68.2604 228.922 66.2244 220.353C64.1885 211.783 65.5017 202.759 69.8958 195.125C78.6512 205.894 89.5748 214.699 101.956 220.969C114.338 227.239 127.901 230.832 141.762 231.517C141.076 228.915 140.752 226.232 140.8 223.542C140.542 216.433 142.481 209.417 146.354 203.449C150.226 197.482 155.844 192.853 162.442 190.193C169.039 187.532 176.297 186.97 183.225 188.583C190.154 190.195 196.417 193.904 201.162 199.204C208.962 197.63 216.444 194.764 223.3 190.725C220.7 198.935 215.169 205.902 207.762 210.296C214.682 209.342 221.427 207.398 227.792 204.521C223.179 211.605 217.344 217.813 210.558 222.854Z" stroke="#F72585" stroke-width="16.6667" stroke-linecap="round" stroke-linejoin="round"/>
<path d="M370 194.792V85.1125C370 82.0571 370.603 79.0316 371.773 76.2093C372.944 73.387 374.66 70.8233 376.822 68.6649C378.985 66.5065 381.552 64.7958 384.377 63.6307C387.201 62.4656 390.228 61.869 393.283 61.875C404.696 61.875 411.846 65.2667 416.75 71.5917" stroke="#F72585" stroke-width="16.6667" stroke-linecap="round" stroke-linejoin="round"/>
<path d="M350.292 106.746H396.812" stroke="#F72585" stroke-width="16.6667" stroke-linecap="round" stroke-linejoin="round"/>
<path d="M294.283 25.2085C291.852 25.2085 289.521 26.1743 287.802 27.8933C286.082 29.6124 285.117 31.944 285.117 34.3752V185.625C285.117 188.056 286.082 190.388 287.802 192.107C289.521 193.826 291.852 194.792 294.283 194.792H445.717C448.148 194.792 450.479 193.826 452.198 192.107C453.918 190.388 454.883 188.056 454.883 185.625V34.3752C454.883 31.944 453.918 29.6124 452.198 27.8933C450.479 26.1743 448.148 25.2085 445.717 25.2085H294.283Z" stroke="#F72585" stroke-width="16.6667" stroke-linecap="round" stroke-linejoin="round"/>
<defs>
<clipPath id="clip0_122_21">
<rect width="520" height="520" fill="white" transform="translate(0 330)"/>
</clipPath>
</defs>
</svg>
