<svg width="560" height="560" viewBox="0 0 560 560" fill="none" xmlns="http://www.w3.org/2000/svg">
<g clip-path="url(#clip0_122_21)">
<path d="M532.526 0H504.621C504.618 0 504.616 0 504.614 0H27.4739C22.6315 0 18.7056 3.92585 18.7056 8.76827C18.7056 13.6107 22.6315 17.5365 27.4739 17.5365H47.7543L74.8412 242.968C74.8623 243.46 74.9161 243.944 75.0143 244.411L108.095 519.73C111.059 542.688 130.748 560 153.896 560H406.104C429.252 560 448.941 542.688 451.913 519.654L484.985 244.413C485.084 243.945 485.137 243.461 485.158 242.968L512.246 17.5365H532.526C537.369 17.5365 541.294 13.6107 541.294 8.76827C541.294 3.92585 537.369 0 532.526 0ZM345.681 83.0063L344.074 121.587H288.768V83.0063H345.681ZM482.081 121.587H434.498L437.713 83.0063H486.716L482.081 121.587ZM461.853 289.937H420.469L423.684 251.357H466.488L461.853 289.937ZM455.109 346.054H415.792L419.007 307.474H459.745L455.109 346.054ZM347.596 458.288L349.204 419.708H392.057L388.842 458.288H347.596ZM288.768 458.288V419.708H331.652L330.045 458.288H288.768ZM229.955 458.288L228.348 419.708H271.232V458.288H229.955ZM86.7696 195.24H131.64L134.855 233.82H91.4051L86.7696 195.24ZM149.237 195.24H201.443L203.051 233.82H152.452L149.237 195.24ZM271.232 307.474V346.054H225.279L223.671 307.474H271.232ZM222.941 289.937L221.333 251.357H271.232V289.937H222.941ZM288.768 307.474H336.329L334.721 346.054H288.768V307.474ZM288.768 289.937V251.357H338.667L337.059 289.937H288.768ZM288.768 233.82V195.24H341.005L339.397 233.82H288.768ZM271.232 233.82H220.603L218.995 195.24H271.232V233.82ZM203.782 251.357L205.389 289.937H157.129L153.913 251.357H203.782ZM206.12 307.474L207.727 346.054H161.805L158.59 307.474H206.12ZM208.458 363.591L210.065 402.171H166.481L163.266 363.591H208.458ZM226.01 363.591H271.232V402.171H227.617L226.01 363.591ZM288.768 363.591H333.99L332.383 402.171H288.768V363.591ZM351.542 363.591H396.734L393.519 402.171H349.935L351.542 363.591ZM352.273 346.054L353.88 307.474H401.41L398.195 346.054H352.273ZM354.611 289.937L356.218 251.357H406.087L402.871 289.937H354.611ZM356.949 233.82L358.557 195.24H410.763L407.548 233.82H356.949ZM359.287 177.704L360.895 139.123H415.439L412.224 177.704H359.287ZM341.736 177.704H288.768V139.123H343.343L341.736 177.704ZM271.232 177.704H218.264L216.657 139.123H271.232V177.704ZM200.713 177.704H147.776L144.561 139.123H199.105L200.713 177.704ZM130.178 177.704H84.6617L80.0262 139.123H126.963L130.178 177.704ZM136.316 251.357L139.531 289.937H98.1473L93.5118 251.357H136.316ZM140.993 307.474L144.208 346.054H104.891L100.255 307.474H140.993ZM145.669 363.591L148.884 402.171H111.649C111.643 402.171 111.639 402.172 111.633 402.172L106.997 363.591H145.669ZM113.741 419.708H150.345L153.56 458.288H118.376L113.741 419.708ZM171.158 458.288L167.943 419.708H210.796L212.404 458.288H171.158ZM409.655 419.708H446.259L441.624 458.288H406.44L409.655 419.708ZM448.367 402.172C448.361 402.172 448.357 402.171 448.351 402.171H411.116L414.331 363.591H453.003L448.367 402.172ZM425.145 233.82L428.36 195.24H473.23L468.595 233.82H425.145ZM475.338 177.704H429.822L433.037 139.123H479.974L475.338 177.704ZM416.901 121.587H361.626L363.233 83.0063H420.116L416.901 121.587ZM271.232 121.587H215.926L214.319 83.0063H271.232V121.587ZM196.767 83.0063L198.374 121.587H143.099L139.884 83.0063H196.767ZM122.287 83.0063L125.502 121.587H77.9195L73.284 83.0063H122.287ZM434.511 517.486C432.674 531.725 420.462 542.463 406.104 542.463H153.896C139.538 542.463 127.326 531.725 125.497 517.563L120.483 475.825H163.068C163.071 475.825 163.076 475.825 163.079 475.825C163.084 475.825 163.089 475.825 163.093 475.825H396.906C396.91 475.825 396.915 475.825 396.92 475.825C396.923 475.825 396.928 475.825 396.931 475.825H439.516L434.511 517.486ZM488.824 65.4697H71.1761L65.4171 17.5365H494.583L488.824 65.4697Z" fill="#4CC9F0"/>
<path d="M415.182 486.405C410.365 485.851 406.022 489.3 405.466 494.111L402.228 522.169C401.673 526.98 405.123 531.329 409.934 531.886C410.275 531.925 410.614 531.944 410.95 531.944C415.342 531.944 419.134 528.649 419.649 524.18L422.886 496.122C423.442 491.31 419.993 486.96 415.182 486.405Z" fill="#4CC9F0"/>
<path d="M464.972 54.8857C465.313 54.9254 465.652 54.9441 465.988 54.9441C470.38 54.9441 474.172 51.6496 474.687 47.1801L475.766 37.832C476.322 33.0211 472.872 28.6721 468.061 28.1156C463.253 27.5614 458.901 31.0103 458.344 35.8211L457.265 45.1693C456.712 49.9801 460.162 54.3304 464.972 54.8857Z" fill="#4CC9F0"/>
</g>
<path d="M234.217 109.689V114.625C234.217 164.33 196.506 221.29 127.503 221.29C107.132 221.334 87.1937 215.414 70.1475 204.261C73.1079 204.663 76.0941 204.844 79.0814 204.804C95.9672 204.85 112.378 199.218 125.676 188.812C117.832 188.696 110.223 186.111 103.932 181.423C97.6402 176.736 92.9863 170.185 90.6314 162.701C92.9681 163.196 95.3505 163.444 97.7391 163.441C101.075 163.442 104.395 162.994 107.611 162.108C99.1142 160.415 91.4701 155.821 85.9867 149.113C80.5033 142.405 77.5215 134 77.5513 125.336V124.842C82.7498 127.746 88.5779 129.339 94.5308 129.482C86.6067 124.268 80.9728 116.224 78.7802 106.995C76.5876 97.7662 78.0019 88.0482 82.734 79.827C92.1628 91.4238 103.927 100.907 117.261 107.659C130.595 114.411 145.201 118.281 160.129 119.018C159.39 116.217 159.041 113.326 159.092 110.43C158.814 102.774 160.903 95.2179 165.073 88.7914C169.244 82.3649 175.293 77.3798 182.399 74.5151C189.504 71.6503 197.319 71.045 204.781 72.7816C212.243 74.5181 218.988 78.5122 224.098 84.2199C232.498 82.5248 240.556 79.4385 247.938 75.0885C245.139 83.9305 239.183 91.4328 231.206 96.1648C238.657 95.1381 245.922 93.0435 252.776 89.9456C247.808 97.5747 241.524 104.26 234.217 109.689Z" stroke="#F72585" stroke-width="16.6667" stroke-linecap="round" stroke-linejoin="round"/>
<path d="M404.017 76.3985C401.879 76.3694 399.781 76.9748 397.987 78.1382C396.194 79.3016 394.785 80.9707 393.94 82.9345C393.095 84.8982 392.852 87.0685 393.24 89.1708C393.628 91.273 394.631 93.213 396.122 94.7452C397.613 96.2775 399.525 97.3332 401.616 97.7791C403.706 98.2249 405.883 98.0407 407.869 97.2498C409.855 96.4589 411.562 95.0968 412.774 93.3358C413.986 91.5747 414.649 89.4938 414.678 87.3562V87.06C414.653 84.2404 413.521 81.5435 411.527 79.5496C409.533 77.5557 406.836 76.4242 404.017 76.3985Z" stroke="#F72585" stroke-width="16.6667" stroke-linecap="round" stroke-linejoin="round"/>
<path d="M429.535 51.9162H266.157C263.582 51.9806 261.134 53.0491 259.336 54.8935C257.537 56.7378 256.531 59.2121 256.532 61.788V225.166C256.532 227.784 257.572 230.295 259.423 232.147C261.275 233.998 263.786 235.038 266.404 235.038H429.782C432.4 235.038 434.911 233.998 436.763 232.147C438.614 230.295 439.654 227.784 439.654 225.166V61.5412C439.622 60.2447 439.335 58.9672 438.809 57.7818C438.283 56.5963 437.529 55.526 436.589 54.6322C435.649 53.7383 434.543 53.0384 433.332 52.5724C432.122 52.1064 430.832 51.8834 429.535 51.9162Z" stroke="#F72585" stroke-width="16.6667" stroke-linecap="round" stroke-linejoin="round"/>
<path d="M347.846 102.361C339.763 102.361 331.861 104.758 325.14 109.249C318.42 113.74 313.181 120.123 310.088 127.591C306.995 135.058 306.185 143.276 307.762 151.204C309.339 159.132 313.232 166.414 318.947 172.129C324.663 177.845 331.945 181.738 339.873 183.314C347.801 184.891 356.018 184.082 363.486 180.989C370.954 177.896 377.337 172.657 381.828 165.936C386.318 159.215 388.715 151.314 388.715 143.231C388.715 132.391 384.41 121.996 376.745 114.332C369.081 106.667 358.685 102.361 347.846 102.361Z" stroke="#F72585" stroke-width="16.6667" stroke-linecap="round" stroke-linejoin="round"/>
<path d="M207.462 482.237V364.121C207.462 360.831 208.11 357.573 209.371 354.533C210.632 351.494 212.48 348.733 214.809 346.408C217.138 344.084 219.902 342.242 222.944 340.987C225.986 339.732 229.245 339.09 232.536 339.096C244.826 339.096 252.526 342.749 257.808 349.56" stroke="#F72585" stroke-width="16.6667" stroke-linecap="round" stroke-linejoin="round"/>
<path d="M186.237 387.418H236.337" stroke="#F72585" stroke-width="16.6667" stroke-linecap="round" stroke-linejoin="round"/>
<path d="M125.921 299.609C123.302 299.609 120.791 300.649 118.94 302.5C117.089 304.352 116.049 306.863 116.049 309.481V472.365C116.049 474.983 117.089 477.494 118.94 479.346C120.791 481.197 123.302 482.237 125.921 482.237H289.003C291.621 482.237 294.132 481.197 295.983 479.346C297.834 477.494 298.874 474.983 298.874 472.365V309.481C298.874 306.863 297.834 304.352 295.983 302.5C294.132 300.649 291.621 299.609 289.003 299.609H125.921Z" stroke="#F72585" stroke-width="16.6667" stroke-linecap="round" stroke-linejoin="round"/>
<defs>
<clipPath id="clip0_122_21">
<rect width="560" height="560" fill="white"/>
</clipPath>
</defs>
</svg>
