<svg width="560" height="560" viewBox="0 0 560 560" fill="none" xmlns="http://www.w3.org/2000/svg">
<path d="M274.148 370.18C274.148 370.898 274.29 371.609 274.565 372.272C274.84 372.936 275.242 373.539 275.75 374.047C276.258 374.554 276.861 374.957 277.524 375.232C278.188 375.507 278.899 375.648 279.617 375.648C280.335 375.648 281.046 375.507 281.71 375.232C282.373 374.957 282.976 374.554 283.484 374.047C283.992 373.539 284.395 372.936 284.67 372.272C284.945 371.609 285.086 370.898 285.086 370.18C285.086 368.729 284.51 367.338 283.484 366.313C282.459 365.287 281.068 364.711 279.617 364.711C278.167 364.711 276.776 365.287 275.75 366.313C274.725 367.338 274.148 368.729 274.148 370.18Z" fill="#B5179E"/>
<path d="M525 413.438V75.7422H35V413.438H210.055V460.195H140.109V484.258H420.055V460.195H350.055V413.438H525ZM59.0625 99.8047H500.938V333.375H59.0625V99.8047ZM325.992 460.195H234.117V413.438H325.992V460.195ZM59.0625 389.375V344.258H500.938V389.375H59.0625Z" fill="#4CC9F0"/>
<path d="M91.6212 179.213L141.234 129.6L148.968 137.334L99.3551 186.946L91.6212 179.213ZM94.5869 231.585L193.658 132.513L201.392 140.247L102.32 239.318L94.5869 231.585Z" fill="#B5179E"/>
<g clip-path="url(#clip0_91_656)">
<path d="M507.5 297.5H402.5C395.245 297.5 389.375 303.37 389.375 310.625V494.375C389.375 501.63 395.245 507.5 402.5 507.5H507.5C514.755 507.5 520.625 501.63 520.625 494.375V310.625C520.625 303.37 514.755 297.5 507.5 297.5ZM514.062 494.375C514.062 497.997 511.122 500.938 507.5 500.938H402.5C398.878 500.938 395.938 497.997 395.938 494.375V468.125H514.062V494.375ZM514.062 461.562H395.938V330.312H514.062V461.562ZM514.062 323.75H395.938V310.625C395.938 307.003 398.878 304.062 402.5 304.062H507.5C511.122 304.062 514.062 307.003 514.062 310.625V323.75Z" fill="#F72585"/>
<path d="M455 494.375C460.44 494.375 464.844 489.972 464.844 484.531C464.844 479.091 460.44 474.688 455 474.688C449.56 474.688 445.156 479.091 445.156 484.531C445.156 489.972 449.56 494.375 455 494.375ZM455 481.25C456.815 481.25 458.281 482.717 458.281 484.531C458.281 486.346 456.815 487.812 455 487.812C453.185 487.812 451.719 486.346 451.719 484.531C451.719 482.717 453.185 481.25 455 481.25Z" fill="#F72585"/>
<path d="M458.281 310.625H438.594C436.779 310.625 435.312 312.092 435.312 313.906C435.312 315.721 436.779 317.188 438.594 317.188H458.281C460.096 317.188 461.562 315.721 461.562 313.906C461.562 312.092 460.096 310.625 458.281 310.625Z" fill="#F72585"/>
<path d="M471.406 317.188C473.218 317.188 474.688 315.718 474.688 313.906C474.688 312.094 473.218 310.625 471.406 310.625C469.594 310.625 468.125 312.094 468.125 313.906C468.125 315.718 469.594 317.188 471.406 317.188Z" fill="#F72585"/>
</g>
<g clip-path="url(#clip1_91_656)">
<path d="M193.035 297.5H58.9653C51.3835 297.5 45.2312 303.652 45.2312 311.24V493.76C45.2312 501.348 51.3835 507.5 58.9649 507.5H193.035C200.623 507.5 206.768 501.348 206.768 493.76V311.24C206.769 303.652 200.623 297.5 193.035 297.5ZM127.615 498.88C124.347 498.88 121.693 496.233 121.693 492.952C121.693 489.684 124.347 487.03 127.615 487.03C130.89 487.03 133.537 489.684 133.537 492.952C133.537 496.233 130.89 498.88 127.615 498.88ZM190.612 478.424H61.3877V313.65H190.613V478.424H190.612Z" fill="#F72585"/>
</g>
<defs>
<clipPath id="clip0_91_656">
<rect width="210" height="210" fill="white" transform="translate(350 297.5)"/>
</clipPath>
<clipPath id="clip1_91_656">
<rect width="210" height="210" fill="white" transform="translate(21 297.5)"/>
</clipPath>
</defs>
</svg>
