<svg width="560" height="560" viewBox="0 0 560 560" fill="none" xmlns="http://www.w3.org/2000/svg">
<path d="M310.289 539.051H250.753C234.377 539.051 221.055 525.733 221.055 509.363V450.409C199.977 443 180.13 431.519 163.111 416.894L111.963 446.415C107.472 448.997 102.368 450.358 97.1939 450.359C86.5812 450.359 76.7112 444.701 71.4361 435.593L41.6456 383.986C33.4895 369.838 38.36 351.666 52.5011 343.473L103.624 313.988C101.543 302.973 100.488 291.74 100.488 280.519C100.488 269.3 101.542 258.068 103.624 247.051L52.5131 217.574C38.325 209.354 33.4567 191.152 41.6489 176.992L71.4317 125.453C76.72 116.323 86.59 110.658 97.1928 110.658C102.38 110.658 107.493 112.033 111.977 114.634L163.114 144.106C180.15 129.501 200 118.034 221.055 110.633V51.6796C221.055 35.3083 234.377 21.9897 250.753 21.9897H310.29C326.668 21.9897 339.991 35.3083 339.991 51.6796V110.632C361.147 118.061 380.998 129.525 397.941 144.1L449.086 114.623C453.565 112.032 458.678 110.658 463.863 110.658C474.464 110.658 484.325 116.329 489.592 125.457L519.397 176.993C527.575 191.186 522.701 209.384 508.538 217.571L457.418 247.053C459.485 258.013 460.531 269.246 460.531 280.521C460.531 291.882 459.489 303.116 457.426 313.993L508.532 343.467C515.353 347.374 520.259 353.747 522.326 361.402C524.402 369.091 523.364 377.111 519.401 383.984L489.615 435.585C484.335 444.701 474.47 450.359 463.864 450.36C458.691 450.36 453.587 449 449.099 446.426L397.939 416.895C380.928 431.528 361.079 442.995 339.992 450.369V509.363C339.991 525.733 326.667 539.051 310.289 539.051ZM164.018 400.561C165.807 400.561 167.582 401.215 168.968 402.481C186.624 418.612 207.939 430.941 230.61 438.134C233.658 439.102 235.728 441.932 235.728 445.129V509.364C235.728 517.642 242.468 524.379 250.752 524.379H310.289C318.575 524.379 325.315 517.643 325.315 509.364V445.08C325.315 441.877 327.392 439.044 330.446 438.083C353.12 430.933 374.431 418.624 392.072 402.486C394.434 400.327 397.922 399.945 400.693 401.545L456.416 433.709C458.667 435 461.247 435.688 463.862 435.688C469.25 435.686 474.251 432.834 476.911 428.241L506.691 376.653C508.689 373.186 509.212 369.128 508.159 365.233C507.116 361.368 504.651 358.158 501.22 356.193L445.506 324.061C442.729 322.458 441.313 319.239 442.011 316.109C444.563 304.644 445.858 292.671 445.858 280.523C445.858 268.487 444.562 256.509 442.007 244.921C441.318 241.796 442.734 238.584 445.506 236.985L501.201 204.865C508.362 200.727 510.826 191.513 506.688 184.332L476.887 132.801C474.227 128.193 469.24 125.335 463.864 125.335C461.257 125.335 458.686 126.026 456.426 127.333L400.691 159.457C397.92 161.053 394.434 160.671 392.073 158.512C374.522 142.448 353.209 130.139 330.436 122.912C327.389 121.944 325.317 119.115 325.317 115.918V51.6807C325.317 43.4021 318.578 36.6646 310.291 36.6646H250.753C242.469 36.6646 235.729 43.401 235.729 51.6807V115.916C235.729 119.113 233.659 121.942 230.611 122.91C207.963 130.095 186.646 142.409 168.96 158.521C166.601 160.673 163.121 161.049 160.356 159.456L104.631 127.34C102.364 126.024 99.7981 125.334 97.1928 125.334C91.8072 125.334 86.8022 128.196 84.1334 132.804L54.3528 184.339C50.2086 191.504 52.6783 200.713 59.8576 204.871L115.539 236.984C118.312 238.583 119.728 241.794 119.039 244.92C116.468 256.582 115.165 268.559 115.165 280.522C115.165 292.485 116.469 304.463 119.039 316.123C119.728 319.248 118.312 322.46 115.54 324.059L59.8467 356.181C52.7045 360.317 50.237 369.507 54.3583 376.656L84.14 428.25C86.7956 432.833 91.7995 435.686 97.195 435.686C99.8069 435.686 102.382 435 104.64 433.702L160.354 401.545C161.494 400.882 162.76 400.561 164.018 400.561Z" fill="#F72585"/>
<path d="M280.537 369.429C231.475 369.429 191.559 329.546 191.559 280.522C191.559 231.499 231.475 191.615 280.537 191.615C329.583 191.615 369.484 231.499 369.484 280.522C369.484 329.546 329.583 369.429 280.537 369.429ZM280.537 206.288C239.566 206.288 206.234 239.588 206.234 280.52C206.234 321.453 239.566 354.754 280.537 354.754C321.491 354.754 354.81 321.453 354.81 280.52C354.81 239.588 321.492 206.288 280.537 206.288Z" fill="#F72585"/>
<path d="M503.954 78.75H455.661H294V131.25H455.661H503.954H504V78.75H503.954ZM455.661 124.688H300.562V85.3125H455.661V124.688ZM490.954 117.607L485.139 111.786C483.276 113.203 480.985 114.076 478.472 114.076C472.362 114.076 467.394 109.102 467.394 102.998C467.394 96.8953 472.369 91.9209 478.472 91.9209C484.575 91.9209 489.549 96.8953 489.549 102.998C489.549 105.413 488.749 107.632 487.436 109.456L493.27 115.29L490.954 117.607Z" fill="#4CC9F0"/>
<path d="M478.472 110.788C482.778 110.788 486.268 107.298 486.268 102.992C486.268 98.6861 482.778 95.1956 478.472 95.1956C474.166 95.1956 470.676 98.6861 470.676 102.992C470.676 107.298 474.166 110.788 478.472 110.788Z" fill="#4CC9F0"/>
<path d="M332.253 93.7928L314.483 111.558L319.122 116.199L336.892 98.4338L332.253 93.7928Z" fill="#4CC9F0"/>
<path d="M352.324 93.7938L334.554 111.559L339.194 116.2L356.964 98.4348L352.324 93.7938Z" fill="#4CC9F0"/>
<path d="M372.368 93.7727L354.605 111.536L359.245 116.176L377.008 98.413L372.368 93.7727Z" fill="#4CC9F0"/>
<path d="M392.399 93.7908L374.629 111.556L379.268 116.197L397.038 98.4318L392.399 93.7908Z" fill="#4CC9F0"/>
<g clip-path="url(#clip0_93_45)">
<path d="M186.75 512V398.25H239.25V512H186.75ZM204.25 415.75V494.5H221.75V415.75H204.25ZM169.25 512H116.75V442H169.25V512ZM134.25 494.5H151.75V459.5H134.25V494.5ZM99.25 512H46.75V459.5H99.25V512ZM64.25 494.5H81.75V477H64.25V494.5ZM46.75 442V424.5C115 424.5 158.75 394.75 187.625 329.125L150 344L143 327.375L208.625 302L234.875 365L218.25 372L203.375 335.25C171.875 407.875 122 442 46.75 442Z" fill="#4CC9F0"/>
</g>
<defs>
<clipPath id="clip0_93_45">
<rect width="210" height="210" fill="white" transform="translate(38 302)"/>
</clipPath>
</defs>
</svg>
