<svg width="560" height="560" viewBox="0 0 560 560" fill="none" xmlns="http://www.w3.org/2000/svg">
<path d="M376.25 26.25H78.75V533.75H481.25V131.25" stroke="#455A64" stroke-width="25" stroke-miterlimit="10" stroke-linecap="round" stroke-linejoin="round"/>
<path d="M376.25 26.25L480.883 131.25H376.25V70" stroke="#455A64" stroke-width="25" stroke-miterlimit="10" stroke-linecap="round" stroke-linejoin="round"/>
<path d="M376.25 26.25H78.75V533.75H481.25V131.25" stroke="#4CC9F0" stroke-width="25" stroke-miterlimit="10" stroke-linecap="round" stroke-linejoin="round"/>
<path d="M376.25 26.25L480.883 131.25H376.25V70" stroke="#4CC9F0" stroke-width="25" stroke-miterlimit="10" stroke-linecap="round" stroke-linejoin="round"/>
<g clip-path="url(#clip0_93_110)">
<path fill-rule="evenodd" clip-rule="evenodd" d="M291.804 214.335L70.9538 401.895L128.503 452.564L338.231 255.212L291.804 214.335ZM354.874 240.552L308.446 199.682C308.446 199.682 332.027 183.843 329.857 173.951C327.687 164.052 322.779 150.069 288.636 137.658C254.485 125.247 222.635 124.122 222.635 124.122L221.489 110.579C221.489 110.579 299.968 100.132 341.425 113.098C382.883 126.071 429.774 174.883 429.774 174.883C429.774 174.883 421.593 198.488 435.61 210.83C449.619 223.164 468.458 208.943 468.458 208.943L489.948 232.963L435.724 280.705L408.494 261.745C408.494 261.745 421.374 244.743 408.643 234.566C381.238 212.671 354.874 240.552 354.874 240.552Z" fill="#F72585"/>
</g>
<defs>
<clipPath id="clip0_93_110">
<rect width="560" height="493.051" fill="white" transform="matrix(-1 0 0 1 560 33)"/>
</clipPath>
</defs>
</svg>
